<svg width="54" height="47" viewBox="0 0 54 47" fill="none" xmlns="http://www.w3.org/2000/svg">
<path d="M53.259 32.2722C53.259 46.531 41.3366 38.7266 26.6295 38.7266C11.9225 38.7266 0 46.531 0 32.2722C0 18.0134 11.9224 6.45444 26.6295 6.45444C41.3366 6.45444 53.259 18.0134 53.259 32.2722Z" fill="#C4C4C4"/>
<path d="M23.0719 36.6307C23.0746 30.9055 24.5622 36.6313 26.4006 36.6321C28.239 36.633 29.732 30.9084 29.7293 36.6336C29.7266 42.3588 28.234 46.9993 26.3957 46.9985C24.5573 46.9977 23.0692 42.3558 23.0719 36.6307Z" fill="#C4C4C4"/>
<path d="M29.7243 10.3648C29.7243 16.089 28.234 10.3648 26.3956 10.3648C24.5573 10.3648 23.067 16.089 23.067 10.3648C23.067 4.64046 24.5573 0 26.3956 0C28.234 0 29.7243 4.64046 29.7243 10.3648Z" fill="#C4C4C4"/>
</svg>
